# xmcd CD database file
#
# Track frame offsets:
#	150
#	2885
#	15685
#	21825
#	32777
#	37400
#	42490
#	52582
#	65087
#	72090
#	79285
#	88112
#	90245
#	116722
#	121740
#	132135
#	142332
#	156165
#	162005
#	163537
#	173330
#	180842
#	185625
#
# Disc length: 2791 seconds
#
# Revision: 4
# Processed by: cddbd v1.5.2PL0 Copyright (c) Steve Scherf et al.
# Submitted via: CDex 1.51
#
DISCID=2c0ae517
DTITLE=Jim Morrison Music By The Doors - An American Prayer
DYEAR=1978
DGENRE=Rock
TTITLE0=Awake
TTITLE1=Ghost Song
TTITLE2=Dawn's Highway
TTITLE3=Newborn Awakening
TTITLE4=To Come Of Age
TTITLE5=Black Polished Chrome
TTITLE6=Latino Chrome
TTITLE7=Angels And Sailors
TTITLE8=Stoned Immaculate
TTITLE9=The Movie
TTITLE10=Curses, Invocations
TTITLE11=American Night
TTITLE12=Roadhouse Blues
TTITLE13=The World On Fire
TTITLE14=Lament
TTITLE15=The Hitchhiker
TTITLE16=An American Prayer
TTITLE17=Hour For Magic
TTITLE18=Freedom Exists
TTITLE19=A Feast Of Friends
TTITLE20=Babylon Fading
TTITLE21=Bird Of Prey
TTITLE22=The Ghost Song
EXTD=YEAR: 1978
EXTT0=
EXTT1=
EXTT2=
EXTT3=
EXTT4=
EXTT5=
EXTT6=
EXTT7=
EXTT8=
EXTT9=
EXTT10=
EXTT11=
EXTT12=
EXTT13=
EXTT14=
EXTT15=
EXTT16=
EXTT17=
EXTT18=
EXTT19=
EXTT20=
EXTT21=
EXTT22=
PLAYORDER=
